<?xml version="1.0" standalone="no"?>
<!DOCTYPE svg PUBLIC "-//W3C//DTD SVG 20010904//EN"
 "http://www.w3.org/TR/2001/REC-SVG-20010904/DTD/svg10.dtd">
<svg version="1.0" xmlns="http://www.w3.org/2000/svg"
 width="36.000000pt" height="36.000000pt" viewBox="0 0 36.000000 36.000000"
 preserveAspectRatio="xMidYMid meet">

<g transform="translate(0.000000,36.000000) scale(0.100000,-0.100000)"
fill="#000000" stroke="none">
<path d="M136 265 c-30 -27 -48 -35 -78 -35 l-38 0 0 -55 0 -55 41 0 c33 0 49
-7 80 -35 22 -19 44 -35 49 -35 6 0 10 49 10 125 0 141 -2 144 -64 90z"/>
<path d="M300 263 c25 -46 26 -122 4 -169 -19 -39 -11 -57 11 -28 23 30 37 94
31 137 -8 51 -33 97 -51 97 -12 0 -11 -7 5 -37z"/>
<path d="M250 266 c0 -2 7 -17 15 -32 19 -37 19 -81 0 -118 -18 -35 -18 -36
-2 -36 20 0 37 44 37 95 0 51 -17 95 -37 95 -7 0 -13 -2 -13 -4z"/>
<path d="M225 175 c0 -36 3 -65 6 -65 16 0 31 62 23 92 -16 54 -29 42 -29 -27z"/>
</g>
</svg>
